<svg width="24" height="24" xmlns="http://www.w3.org/2000/svg">

 <g>
  <title>background</title>
  <rect fill="none" id="canvas_background" height="602" width="802" y="-1" x="-1"/>
 </g>
 <g>
  <title>Layer 1</title>
  <path id="svg_1" fill="none" d="m0,0l24,0l0,24l-24,0l0,-24z"/>
  <path id="svg_2" d="m2.53,19.65l1.34,0.56l0,-9.03l-2.43,5.86c-0.41,1.02 0.08,2.19 1.09,2.61zm19.5,-3.7l-4.96,-11.97c-0.31,-0.75 -1.04,-1.21 -1.81,-1.23c-0.26,0 -0.53,0.04 -0.79,0.15l-7.37,3.05c-0.75,0.31 -1.21,1.03 -1.23,1.8c-0.01,0.27 0.04,0.54 0.15,0.8l4.96,11.97c0.31,0.76 1.05,1.22 1.83,1.23c0.26,0 0.52,-0.05 0.77,-0.15l7.36,-3.05c1.02,-0.42 1.51,-1.59 1.09,-2.6zm-16.15,3.8c0,1.1 0.9,2 2,2l1.45,0l-3.45,-8.34l0,6.34z"/>
 </g>
</svg>